#!OML:ASF E:\VariousWalksJay\Project 1\Capture day 1\Session 1\Actor2.ASF
:FULLY-SPECIFIED
:DEGREES
752
root -6.72451 16.6492 30.4648 27.2226 -45.2497 -8.74973
lowerback 21.1798 -3.60299 6.17943
upperback 14.4012 -4.26676 -1.98769
thorax 3.44864 -1.85836 -4.86814
lowerneck 4.74109 3.62092 -0.673452
upperneck -18.2152 5.11064 1.54215
head -6.36225 2.36278 0.25477
rclavicle -1.90833e-014 -6.52014e-014
rhumerus -45.9818 21.45 -89.6461
rradius 71.5151
rwrist 12.2566
rhand -48.3236 13.8912
rfingers 7.12502
rthumb -20.9793 -14.9942
lclavicle -1.90833e-014 -6.52014e-014
lhumerus 12.9041 -44.3731 69.9337
lradius 86.3142
lwrist 35.736
lhand -29.7077 0.465955
lfingers 7.12502
lthumb -3.03517 30.4241
rfemur -17.5855 10.1793 21.384
rtibia 44.1665
rfoot -15.4619 0.519908
rtoes -26.1591
lfemur -51.6446 4.65506 -17.5555
ltibia 25.5946
lfoot 4.15465 2.09669
ltoes -1.70268
753
root -6.77889 16.6718 30.5833 27.2861 -45.2893 -8.7676
lowerback 21.1927 -3.5507 6.115
upperback 14.3637 -4.20655 -1.99228
thorax 3.40908 -1.83399 -4.84617
lowerneck 4.78226 3.5946 -0.640704
upperneck -18.2355 5.08433 1.57789
head -6.37565 2.34417 0.261534
rclavicle 1.59028e-015 4.37326e-014
rhumerus -46.0687 21.3534 -89.6147
rradius 71.1199
rwrist 12.3533
rhand -48.3075 13.6254
rfingers 7.12502
rthumb -20.9638 -15.2616
lclavicle 1.59028e-015 4.37326e-014
lhumerus 12.3816 -44.5423 70.4382
lradius 86.3147
lwrist 35.8178
lhand -29.4718 0.493486
lfingers 7.12502
lthumb -2.80734 30.4548
rfemur -17.334 9.99653 21.1952
rtibia 44.0585
rfoot -14.3627 0.865273
rtoes -25.164
lfemur -51.5489 4.4929 -17.6403
ltibia 26.1409
lfoot 4.0257 2.22275
ltoes -1.04217
754
root -6.8333 16.6938 30.698 27.2034 -45.1825 -8.62169
lowerback 21.2362 -3.57541 5.96478
upperback 14.3524 -4.25553 -1.97614
thorax 3.37478 -1.86995 -4.73133
lowerneck 4.83281 3.60097 -0.594697
upperneck -18.3032 5.09835 1.56973
head -6.4048 2.34701 0.248756
rclavicle 6.83819e-014 -1.43125e-014
rhumerus -46.0612 21.3614 -89.5811
rradius 70.78
rwrist 12.4283
rhand -48.3104 13.4124
rfingers 7.12502
rthumb -20.9666 -15.4744
lclavicle 6.83819e-014 -1.43125e-014
lhumerus 11.9173 -44.6332 70.8703
lradius 86.2622
lwrist 35.6256
lhand -29.6381 0.308835
lfingers 7.12502
lthumb -2.96799 30.2679
rfemur -17.0472 9.72719 20.9899
rtibia 43.9903
rfoot -13.2744 1.1496
rtoes -24.1386
lfemur -51.3913 4.27864 -17.8445
ltibia 26.5871
lfoot 3.76595 2.27386
ltoes -0.957171
755
root -6.88622 16.7133 30.8099 27.3539 -45.1746 -8.63708
lowerback 21.1637 -3.52994 5.90252
upperback 14.3197 -4.20797 -1.97058
thorax 3.38148 -1.84996 -4.70163
lowerneck 4.7846 3.56687 -0.518839
upperneck -18.2455 5.06601 1.61709
head -6.37694 2.32322 0.255132
rclavicle 7.95139e-015 3.97569e-015
rhumerus -46.0632 21.3076 -89.5779
rradius 70.4749
rwrist 12.3765
rhand -48.3169 13.5019
rfingers 7.12502
rthumb -20.9729 -15.3842
lclavicle 7.95139e-015 3.97569e-015
lhumerus 11.5788 -44.7882 71.1922
lradius 86.2132
lwrist 35.5734
lhand -29.7 0.209171
lfingers 7.12502
lthumb -3.02776 30.1674
rfemur -16.9737 9.57895 20.8189
rtibia 43.983
rfoot -12.1077 1.32539
rtoes -23.8061
lfemur -51.3259 4.16449 -17.9639
ltibia 26.98
lfoot 3.42901 2.39096
ltoes -1.19944
756
root -6.9385 16.7351 30.926 27.4367 -45.2427 -8.57206
lowerback 21.0699 -3.4672 5.79112
upperback 14.2994 -4.14881 -1.98746
thorax 3.4145 -1.82572 -4.67228
lowerneck 4.7713 3.54816 -0.505613
upperneck -18.2176 5.05176 1.6795
head -6.36689 2.31083 0.274254
rclavicle 6.36111e-014 -4.37326e-014
rhumerus -46.0857 21.3103 -89.5515
rradius 70.2235
rwrist 12.318
rhand -48.3752 13.8573
rfingers 7.12502
rthumb -21.0289 -15.0226
lclavicle 6.36111e-014 -4.37326e-014
lhumerus 11.3252 -44.9769 71.4299
lradius 86.1046
lwrist 35.3069
lhand -30.1102 0.0227912
lfingers 7.12502
lthumb -3.42388 29.975
rfemur -16.8927 9.54905 20.5094
rtibia 44.0077
rfoot -10.9334 1.57761
rtoes -22.7103
lfemur -51.1845 3.92644 -18.0623
ltibia 27.3281
lfoot 3.01705 2.63372
ltoes -1.69303
